<mxfile host="app.diagrams.net" modified="2024-03-07T16:22:13.517Z" agent="Mozilla/5.0 (Windows NT 10.0; Win64; x64) AppleWebKit/537.36 (KHTML, like Gecko) Chrome/114.0.0.0 Safari/537.36" version="24.0.2" etag="XKU7yfj0L6NS_ntjrVEm" type="github">
  <diagram name="Page-1" id="VplYqT3r8YhcSiiFgZkJ">
    <mxGraphModel>
      <root>
        <mxCell id="0" />
        <mxCell id="1" parent="0" />
      </root>
    </mxGraphModel>
  </diagram>
</mxfile>
